# xmcd
#
# Track frame offsets: 
#        182
#        18600
#        38955
#        60477
#
# Disc length: 1153 seconds
#
# Revision: 1
# Processed by: cddbd v1.5.2PL0 Copyright (c) Steve Scherf et al.
# Submitted via: ExactAudioCopy v0.99pb3
#
DISCID=2d047f04
DTITLE=Tina Turner - Tina Turner - Missing You (MX)
DYEAR=1996
DGENRE=Oldies
TTITLE0=Missing You
TTITLE1=The Difference between us
TTITLE2=We don't need another hero (Live)
TTITLE3=What's love got to do with it (LIve)
EXTD=
EXTT0=
EXTT1=
EXTT2=
EXTT3=
PLAYORDER=
